<?xml version="1.0" encoding="UTF-8"?>
<svg id="Layer_1" data-name="Layer 1" xmlns="http://www.w3.org/2000/svg" viewBox="0 0 931.07 362.44">
  <defs>
    <style>
      .cls-1 {
        fill: #fab216;
      }

      .cls-2 {
        fill: #45bbeb;
      }

      .cls-3 {
        fill: none;
      }

      .cls-4 {
        fill: #999;
      }

      .cls-5 {
        fill: #ed3162;
      }
    </style>
  </defs>
  <g>
    <g>
      <g>
        <path class="cls-4" d="m342.95,96.14c-12.31,2.4-25.14,1.44-37.04-2.87-2.4-12.31-1.44-25.14,2.87-37.04h0c12.31-2.4,25.13-1.44,37.03,2.87,2.4,12.31,1.44,25.14-2.87,37.04Z"/>
        <path class="cls-1" d="m309.21,229.08v-109.4h0c18.27,0,33.09,14.81,33.09,33.09v109.4h0c-18.27,0-33.09-14.81-33.09-33.09Z"/>
        <path class="cls-1" d="m430.62,264.04c-12.1,0-23.57-1.56-34.42-4.67-10.85-3.11-19.57-6.89-26.15-11.34l.73-1.45c6.21-12.29,20.34-18.36,33.51-14.35.5.15,1.01.3,1.52.45,8.89,2.58,17.88,3.87,26.95,3.87,10.31,0,17.83-1.38,22.55-4.14,4.71-2.76,7.07-6.54,7.07-11.34,0-3.91-1.6-6.89-4.8-8.94-3.2-2.04-7.38-3.6-12.54-4.67-5.16-1.07-10.9-2.04-17.21-2.94-6.32-.89-12.63-2.09-18.95-3.6-6.32-1.51-12.05-3.73-17.21-6.67-5.16-2.94-9.34-6.89-12.54-11.87-3.2-4.98-4.8-11.65-4.8-20.01,0-8.89,2.58-16.68,7.74-23.35,5.16-6.67,12.41-11.87,21.75-15.61,9.34-3.74,20.41-5.6,33.22-5.6,9.43,0,19.08,1.11,28.95,3.34,9.87,2.23,18.1,5.29,24.68,9.21l-1.38,2.67c-5.98,11.59-19.04,17.41-31.77,14.58-.07-.02-.14-.03-.21-.05-6.94-1.51-13.79-2.27-20.55-2.27-9.96,0-17.44,1.47-22.41,4.4-4.98,2.94-7.47,6.72-7.47,11.34,0,4.27,1.6,7.47,4.8,9.61,3.2,2.13,7.38,3.78,12.54,4.94,5.16,1.16,10.89,2.23,17.21,3.2,6.31.98,12.58,2.23,18.81,3.74,6.22,1.51,11.96,3.65,17.21,6.4,5.24,2.76,9.47,6.63,12.68,11.61,3.2,4.98,4.8,11.47,4.8,19.48,0,9.07-2.63,16.86-7.87,23.35-5.25,6.5-12.63,11.57-22.15,15.21-9.52,3.64-20.95,5.47-34.29,5.47Z"/>
        <path class="cls-1" d="m628.34,153.03v38.69c0,9.43-1.6,17.34-4.8,23.75-3.2,6.4-7.74,11.21-13.61,14.41-5.87,3.2-12.72,4.8-20.55,4.8-10.5,0-18.68-3.16-24.55-9.47-5.87-6.31-8.81-15.79-8.81-28.42v-43.49c0-18.57-15.05-33.62-33.62-33.62v81.38c0,14.23,2.62,26.02,7.87,35.36,5.24,9.34,12.5,16.28,21.75,20.81,9.25,4.54,19.92,6.8,32.02,6.8,11.03,0,21.17-2.49,30.42-7.47.92-.5,1.82-1.01,2.69-1.55,5.6-3.43,12.78.59,12.78,7.15h0c17.54,0,31.75-14.22,31.75-31.75v-110.74c-18.42,0-33.35,14.93-33.35,33.35Z"/>
        <path class="cls-1" d="m807.92,132.76c-11.21-9.96-27.22-14.94-48.03-14.94-11.39,0-22.33,1.51-32.82,4.54-10.5,3.03-19.66,7.47-27.48,13.34l.82,1.52c6.12,11.37,19.51,16.47,31.78,12.43.08-.03.15-.05.23-.08,7.65-2.49,15.38-3.74,23.21-3.74,12.1,0,21.12,2.71,27.08,8.14,5.96,5.43,8.94,13.03,8.94,22.81v2.13h-37.09c-14.41,0-25.97,1.87-34.69,5.6-8.72,3.73-14.99,8.81-18.81,15.21-3.83,6.4-5.74,13.61-5.74,21.61s2.18,15.52,6.54,22.01c4.36,6.5,10.54,11.57,18.54,15.21,8.01,3.64,17.34,5.47,28.02,5.47,12.81,0,23.3-2.31,31.49-6.94.64-.36,1.27-.74,1.88-1.12,4.98-3.15,11.47.3,11.47,6.19h0s0,0,0,0c17.39,0,31.49-14.1,31.49-31.49v-52.03c0-20.63-5.6-35.93-16.81-45.89Zm-30.55,101.4c-6.5,3.74-13.83,5.6-22.01,5.6s-15.21-1.78-20.01-5.34c-4.8-3.56-7.2-8.27-7.2-14.14,0-5.51,2-10.09,6-13.74,4-3.64,11.61-5.47,22.81-5.47h16.81c7.35,0,13.85-3.6,17.88-9.11v25.66c-3.03,7.3-7.78,12.81-14.28,16.54Z"/>
        <path class="cls-1" d="m867.43,229.08V64.18h0c18.27,0,33.09,14.81,33.09,33.09v164.9h0c-18.27,0-33.09-14.81-33.09-33.09Z"/>
      </g>
      <g>
        <path class="cls-2" d="m176.3,260.26c-8.9,2.15-18.2,3.29-27.75,3.29-16.01,0-31.28-3.19-45.2-8.98,13.36-3.2,26.26-8.78,38.05-16.71,10.5,9.75,22.36,17.21,34.91,22.4Z"/>
        <path class="cls-2" d="m247.6,209.65c-12.35,19.09-30.1,34.37-51.06,43.71-16.16-3.93-31.56-11.72-44.72-23.42,2.48-2.09,4.88-4.3,7.21-6.63,2.19-2.19,4.27-4.44,6.26-6.75,7.82-9.13,14.02-19.17,18.59-29.74,2.14-4.92,3.91-9.95,5.34-15.05,4.18-14.93,5.36-30.52,3.55-45.83,8.78,4.74,17.02,10.8,24.42,18.22,1.46,1.46,2.87,2.95,4.21,4.48.83.9,1.62,1.83,2.39,2.77,2.8,3.36,5.34,6.84,7.64,10.44,9.39,14.63,14.79,31.09,16.18,47.8Z"/>
        <path class="cls-1" d="m266.53,145.56c0,16.01-3.19,31.28-8.98,45.2-3.2-13.36-8.78-26.26-16.71-38.05,9.75-10.5,17.21-22.36,22.4-34.91,2.15,8.9,3.29,18.2,3.29,27.75Z"/>
        <path class="cls-5" d="m56.25,138.4c-9.75,10.5-17.21,22.36-22.4,34.91-2.15-8.9-3.29-18.2-3.29-27.75,0-16.01,3.19-31.28,8.98-45.2,3.2,13.36,8.78,26.26,16.71,38.05Z"/>
        <path class="cls-5" d="m168.16,189.78c-4.74,8.78-10.8,17.02-18.22,24.42-1.46,1.46-2.95,2.87-4.48,4.21-.9.83-1.83,1.62-2.77,2.39-3.36,2.8-6.84,5.34-10.44,7.64-14.63,9.39-31.09,14.79-47.8,16.18-19.09-12.35-34.37-30.1-43.71-51.06,3.93-16.16,11.72-31.56,23.42-44.72,2.09,2.48,4.3,4.88,6.63,7.21,2.19,2.19,4.44,4.27,6.75,6.26,9.13,7.82,19.17,14.02,29.74,18.59,4.92,2.14,9.95,3.91,15.05,5.34,14.93,4.18,30.52,5.36,45.83,3.55Z"/>
      </g>
    </g>
    <g>
      <g>
        <path class="cls-4" d="m493.63,332.06c-2.78,0-5.35-.47-7.72-1.42-2.37-.94-4.43-2.27-6.17-3.98-1.75-1.71-3.1-3.71-4.06-6.01-.96-2.3-1.44-4.82-1.44-7.56s.48-5.26,1.44-7.56c.96-2.3,2.32-4.3,4.09-6.01,1.76-1.71,3.82-3.04,6.17-3.98,2.35-.94,4.92-1.42,7.69-1.42,2.64,0,5.1.43,7.4,1.28,2.3.85,4.27,2.15,5.9,3.9h0c-.89.92-2.35,1.1-3.38.33-1.14-.85-2.36-1.5-3.65-1.96-1.94-.69-4-1.04-6.17-1.04-2.39,0-4.6.41-6.65,1.23-2.05.82-3.83,1.98-5.34,3.47s-2.69,3.24-3.53,5.24c-.84,2-1.26,4.17-1.26,6.52s.42,4.52,1.26,6.52c.84,2,2.01,3.74,3.53,5.24s3.29,2.65,5.34,3.47c2.05.82,4.27,1.23,6.65,1.23,2.17,0,4.23-.35,6.17-1.04,1.29-.46,2.51-1.13,3.66-2,1-.76,2.38-.71,3.25.19l.12.12c-1.64,1.75-3.61,3.06-5.9,3.93-2.3.87-4.76,1.31-7.4,1.31Z"/>
        <path class="cls-4" d="m524.83,332c-2.67,0-5.05-.61-7.13-1.82-2.08-1.21-3.74-2.89-4.97-5.02-1.23-2.14-1.84-4.58-1.84-7.32s.61-5.23,1.84-7.35c1.23-2.12,2.89-3.78,4.97-5,2.08-1.21,4.46-1.82,7.13-1.82s5.06.61,7.16,1.82c2.1,1.21,3.76,2.88,4.97,5,1.21,2.12,1.82,4.57,1.82,7.35s-.61,5.18-1.82,7.32c-1.21,2.14-2.87,3.81-4.97,5.02-2.1,1.21-4.49,1.82-7.16,1.82Zm0-2.4c2.14,0,4.06-.49,5.77-1.47s3.05-2.36,4.01-4.14c.96-1.78,1.44-3.83,1.44-6.15s-.48-4.41-1.44-6.17c-.96-1.76-2.3-3.13-4.01-4.11-1.71-.98-3.63-1.47-5.77-1.47s-4.05.49-5.74,1.47c-1.69.98-3.03,2.35-4.01,4.11-.98,1.76-1.47,3.82-1.47,6.17s.49,4.36,1.47,6.15c.98,1.78,2.32,3.16,4.01,4.14s3.61,1.47,5.74,1.47Z"/>
        <path class="cls-4" d="m581.79,303.69c2.24,0,4.2.44,5.85,1.31,1.66.87,2.95,2.19,3.87,3.95s1.39,3.95,1.39,6.55v16.3h0c-1.48,0-2.67-1.2-2.67-2.67v-13.41c0-3.13-.77-5.52-2.3-7.16-1.53-1.64-3.67-2.46-6.41-2.46-2.1,0-3.92.45-5.45,1.34s-2.71,2.14-3.53,3.74c-.82,1.6-1.23,3.53-1.23,5.77v14.85h0c-1.48,0-2.67-1.2-2.67-2.67v-13.41c0-3.13-.77-5.52-2.3-7.16-1.53-1.64-3.67-2.46-6.41-2.46-2.1,0-3.92.45-5.45,1.34-1.53.89-2.71,2.14-3.53,3.74-.82,1.6-1.23,3.53-1.23,5.77v12.18c0,1.48-1.2,2.67-2.67,2.67h0v-25.33c0-1.42,1.15-2.56,2.56-2.56h0v7.69l-.37-.86c.82-2.17,2.19-3.89,4.11-5.16,1.92-1.26,4.24-1.9,6.95-1.9s5.12.7,7.03,2.11,3.11,3.5,3.61,6.28l-.91-.37c.75-2.39,2.15-4.32,4.22-5.8,2.07-1.48,4.58-2.22,7.53-2.22Z"/>
        <path class="cls-4" d="m638.64,303.69c2.24,0,4.2.44,5.85,1.31,1.66.87,2.95,2.19,3.87,3.95.93,1.76,1.39,3.95,1.39,6.55v16.3h0c-1.48,0-2.67-1.2-2.67-2.67v-13.41c0-3.13-.77-5.52-2.3-7.16-1.53-1.64-3.67-2.46-6.41-2.46-2.1,0-3.92.45-5.45,1.34-1.53.89-2.71,2.14-3.53,3.74-.82,1.6-1.23,3.53-1.23,5.77v14.85h0c-1.48,0-2.67-1.2-2.67-2.67v-13.41c0-3.13-.77-5.52-2.3-7.16-1.53-1.64-3.67-2.46-6.41-2.46-2.1,0-3.92.45-5.45,1.34-1.53.89-2.71,2.14-3.53,3.74-.82,1.6-1.23,3.53-1.23,5.77v12.18c0,1.48-1.2,2.67-2.67,2.67h0v-25.33c0-1.42,1.15-2.56,2.56-2.56h0v7.69l-.37-.86c.82-2.17,2.19-3.89,4.11-5.16,1.92-1.26,4.24-1.9,6.95-1.9s5.12.7,7.03,2.11c1.91,1.41,3.11,3.5,3.61,6.28l-.91-.37c.75-2.39,2.15-4.32,4.22-5.8s4.58-2.22,7.53-2.22Z"/>
        <path class="cls-4" d="m672.09,332c-2.39,0-4.45-.44-6.2-1.31-1.75-.87-3.09-2.19-4.03-3.95-.94-1.76-1.42-3.94-1.42-6.54v-16.3h0c1.48,0,2.67,1.2,2.67,2.67v13.41c0,3.13.8,5.52,2.4,7.16,1.6,1.64,3.87,2.46,6.79,2.46,2.1,0,3.92-.45,5.45-1.34,1.53-.89,2.71-2.15,3.53-3.77.82-1.62,1.23-3.54,1.23-5.74v-12.18c0-1.48,1.2-2.67,2.67-2.67h0v25.33c0,1.42-1.15,2.57-2.57,2.57h0v-7.75l.37.91c-.82,2.17-2.18,3.89-4.09,5.16-1.91,1.26-4.18,1.9-6.81,1.9Z"/>
        <path class="cls-4" d="m710.14,303.69c2.28,0,4.27.44,5.96,1.31,1.69.87,3.01,2.19,3.95,3.95.94,1.76,1.42,3.95,1.42,6.55v16.3h0c-1.48,0-2.67-1.2-2.67-2.67v-13.41c0-3.13-.79-5.52-2.38-7.16-1.58-1.64-3.8-2.46-6.65-2.46-2.17,0-4.06.45-5.66,1.34-1.6.89-2.82,2.14-3.66,3.74-.84,1.6-1.26,3.53-1.26,5.77v12.18c0,1.48-1.2,2.67-2.67,2.67h0v-25.33c0-1.42,1.15-2.56,2.56-2.56h0v7.75l-.37-.86c.85-2.21,2.26-3.94,4.22-5.21,1.96-1.26,4.36-1.9,7.21-1.9Z"/>
        <path class="cls-4" d="m735.57,297.01c-1.27.25-2.59.15-3.82-.3-.25-1.27-.15-2.59.3-3.82h0c1.27-.25,2.59-.15,3.82.3.25,1.27.15,2.59-.3,3.82Zm-.43,34.78h0v-25.22c0-1.48-1.2-2.67-2.67-2.67h0v25.22c0,1.48,1.2,2.67,2.67,2.67Z"/>
        <path class="cls-4" d="m757.48,332c-2.71,0-5.12-.61-7.24-1.82-2.12-1.21-3.79-2.89-5.02-5.02-1.23-2.14-1.84-4.58-1.84-7.32s.61-5.24,1.84-7.37c1.23-2.14,2.9-3.8,5.02-5s4.53-1.79,7.24-1.79c2.24,0,4.28.43,6.12,1.28,1.83.85,3.32,2.14,4.46,3.85h0c-1.04.76-2.46.66-3.42-.21-.69-.62-1.45-1.12-2.3-1.5-1.5-.68-3.12-1.02-4.86-1.02-2.17,0-4.12.49-5.85,1.47-1.73.98-3.08,2.35-4.06,4.11-.98,1.76-1.47,3.82-1.47,6.17s.49,4.41,1.47,6.17c.98,1.76,2.33,3.14,4.06,4.11s3.68,1.47,5.85,1.47c1.75,0,3.37-.34,4.86-1.02.85-.38,1.61-.88,2.3-1.51.96-.87,2.38-.97,3.42-.21h0c-1.14,1.71-2.63,2.99-4.46,3.85-1.84.85-3.87,1.28-6.12,1.28Z"/>
        <path class="cls-4" d="m783.61,332c-2.07,0-3.86-.33-5.37-.99-1.51-.66-2.67-1.59-3.47-2.8-.8-1.21-1.2-2.6-1.2-4.17,0-1.42.33-2.72.99-3.87.66-1.16,1.75-2.1,3.29-2.83,1.53-.73,3.58-1.1,6.15-1.1h10.26s0,0,0,0c0,1.15-.93,2.08-2.08,2.08h-8.12c-2.89,0-4.91.53-6.06,1.6-1.16,1.07-1.74,2.4-1.74,4.01,0,1.78.68,3.21,2.03,4.28,1.35,1.07,3.26,1.6,5.72,1.6s4.34-.53,5.96-1.6c1.62-1.07,2.82-2.62,3.61-4.65l.47,1.15c.18.43.19.92,0,1.34-.77,1.72-1.95,3.1-3.55,4.16-1.8,1.19-4.09,1.79-6.87,1.79Zm10.05-.21v-6.36l-.11-.96v-10.47c0-2.6-.7-4.58-2.11-5.93-1.41-1.35-3.46-2.03-6.17-2.03-1.92,0-3.71.33-5.37.99-.92.37-1.76.79-2.53,1.27-1.02.64-2.36.33-3.05-.66h0c1.39-1.25,3.06-2.22,5.02-2.91,1.96-.69,4.01-1.04,6.15-1.04,3.45,0,6.11.87,7.96,2.62,1.85,1.75,2.78,4.35,2.78,7.8v15.12c0,1.42-1.15,2.56-2.56,2.56h0Z"/>
        <path class="cls-4" d="m802.63,306.2h0c0-1.27,1.03-2.3,2.3-2.3h14.37s0,0,0,0c0,1.27-1.03,2.3-2.3,2.3h-14.37Zm12.72,25.81c-2.46,0-4.34-.68-5.64-2.03-1.3-1.35-1.95-3.21-1.95-5.56v-26.61h0c1.48,0,2.67,1.2,2.67,2.67v23.67c0,1.78.45,3.15,1.34,4.11.89.96,2.17,1.44,3.85,1.44,1,0,1.9-.17,2.69-.51,1.01-.43,2.18-.13,2.75.81h0c-.71.69-1.58,1.19-2.59,1.51s-2.06.48-3.13.48Z"/>
        <path class="cls-4" d="m831.59,297.01c-1.27.25-2.59.15-3.82-.3-.25-1.27-.15-2.59.3-3.82h0c1.27-.25,2.59-.15,3.82.3.25,1.27.15,2.59-.3,3.82Zm-.43,34.78h0v-25.22c0-1.48-1.2-2.67-2.67-2.67h0v25.22c0,1.48,1.2,2.67,2.67,2.67Z"/>
        <path class="cls-4" d="m853.33,332c-2.67,0-5.05-.61-7.13-1.82s-3.74-2.89-4.97-5.02c-1.23-2.14-1.84-4.58-1.84-7.32s.61-5.23,1.84-7.35c1.23-2.12,2.89-3.78,4.97-5,2.08-1.21,4.46-1.82,7.13-1.82s5.06.61,7.16,1.82c2.1,1.21,3.76,2.88,4.97,5,1.21,2.12,1.82,4.57,1.82,7.35s-.61,5.18-1.82,7.32c-1.21,2.14-2.87,3.81-4.97,5.02-2.1,1.21-4.49,1.82-7.16,1.82Zm0-2.4c2.14,0,4.06-.49,5.77-1.47,1.71-.98,3.05-2.36,4.01-4.14.96-1.78,1.44-3.83,1.44-6.15s-.48-4.41-1.44-6.17c-.96-1.76-2.3-3.13-4.01-4.11-1.71-.98-3.63-1.47-5.77-1.47s-4.05.49-5.74,1.47c-1.69.98-3.03,2.35-4.01,4.11-.98,1.76-1.47,3.82-1.47,6.17s.49,4.36,1.47,6.15c.98,1.78,2.32,3.16,4.01,4.14,1.69.98,3.61,1.47,5.74,1.47Z"/>
        <path class="cls-4" d="m889.19,303.69c2.28,0,4.27.44,5.96,1.31,1.69.87,3.01,2.19,3.95,3.95.94,1.76,1.42,3.95,1.42,6.55v16.3h0c-1.48,0-2.67-1.2-2.67-2.67v-13.41c0-3.13-.79-5.52-2.38-7.16-1.58-1.64-3.8-2.46-6.65-2.46-2.17,0-4.06.45-5.66,1.34-1.6.89-2.82,2.14-3.66,3.74-.84,1.6-1.26,3.53-1.26,5.77v12.18c0,1.48-1.2,2.67-2.67,2.67h0v-25.33c0-1.42,1.15-2.56,2.56-2.56h0v7.75l-.37-.86c.85-2.21,2.26-3.94,4.22-5.21s4.36-1.9,7.21-1.9Z"/>
      </g>
      <g>
        <path class="cls-4" d="m50.25,69.69c-2.82,0-5.43-.46-7.84-1.39-2.41-.92-4.49-2.22-6.27-3.9-1.77-1.67-3.15-3.64-4.12-5.89-.98-2.25-1.47-4.72-1.47-7.4s.49-5.15,1.47-7.4c.98-2.25,2.36-4.21,4.15-5.89,1.79-1.67,3.88-2.97,6.27-3.9,2.39-.92,4.99-1.39,7.81-1.39,2.68,0,5.18.42,7.51,1.26,2.33.84,4.33,2.11,5.99,3.82l-.13.13c-.89.88-2.27.94-3.29.21-1.16-.83-2.4-1.48-3.72-1.93-1.97-.68-4.06-1.02-6.27-1.02-2.42,0-4.68.4-6.75,1.2-2.08.8-3.89,1.94-5.43,3.4-1.54,1.47-2.73,3.18-3.58,5.13-.85,1.95-1.27,4.08-1.27,6.38s.42,4.43,1.27,6.38c.85,1.95,2.04,3.66,3.58,5.13,1.54,1.47,3.35,2.6,5.43,3.4,2.08.8,4.33,1.2,6.75,1.2,2.21,0,4.29-.34,6.27-1.02,1.31-.45,2.55-1.11,3.71-1.95,1.02-.75,2.41-.7,3.31.19l.11.11c-1.66,1.71-3.66,2.99-5.99,3.85-2.33.85-4.84,1.28-7.51,1.28Z"/>
        <path class="cls-4" d="m81.94,69.63c-2.71,0-5.13-.59-7.24-1.78-2.12-1.19-3.8-2.83-5.04-4.92-1.25-2.09-1.87-4.48-1.87-7.17s.62-5.12,1.87-7.2c1.25-2.07,2.93-3.71,5.04-4.89,2.12-1.19,4.53-1.78,7.24-1.78s5.14.59,7.27,1.78c2.13,1.19,3.82,2.82,5.05,4.89,1.23,2.08,1.84,4.47,1.84,7.2s-.62,5.08-1.84,7.17c-1.23,2.09-2.91,3.73-5.05,4.92-2.13,1.19-4.56,1.78-7.27,1.78Zm0-2.35c2.17,0,4.12-.48,5.86-1.44,1.74-.96,3.09-2.31,4.07-4.06.98-1.74,1.46-3.75,1.46-6.02s-.49-4.32-1.46-6.04c-.98-1.73-2.33-3.07-4.07-4.03-1.74-.96-3.69-1.44-5.86-1.44s-4.11.48-5.83,1.44c-1.72.96-3.07,2.3-4.07,4.03-1,1.73-1.49,3.74-1.49,6.04s.5,4.27,1.49,6.02c.99,1.75,2.35,3.1,4.07,4.06,1.72.96,3.66,1.44,5.83,1.44Z"/>
        <path class="cls-4" d="m104.5,66.71V30.6h0c1.5,0,2.71,1.21,2.71,2.71v36.12h0c-1.5,0-2.71-1.21-2.71-2.71Z"/>
        <path class="cls-4" d="m129.73,69.63c-2.71,0-5.13-.59-7.24-1.78-2.12-1.19-3.8-2.83-5.04-4.92-1.25-2.09-1.87-4.48-1.87-7.17s.62-5.12,1.87-7.2c1.25-2.07,2.93-3.71,5.04-4.89,2.12-1.19,4.53-1.78,7.24-1.78s5.14.59,7.27,1.78c2.13,1.19,3.82,2.82,5.05,4.89,1.23,2.08,1.84,4.47,1.84,7.2s-.62,5.08-1.84,7.17c-1.23,2.09-2.91,3.73-5.05,4.92-2.13,1.19-4.56,1.78-7.27,1.78Zm0-2.35c2.17,0,4.12-.48,5.86-1.44,1.74-.96,3.09-2.31,4.07-4.06.98-1.74,1.46-3.75,1.46-6.02s-.49-4.32-1.46-6.04c-.98-1.73-2.33-3.07-4.07-4.03-1.74-.96-3.69-1.44-5.86-1.44s-4.11.48-5.83,1.44c-1.72.96-3.07,2.3-4.07,4.03-1,1.73-1.49,3.74-1.49,6.04s.5,4.27,1.49,6.02c.99,1.75,2.35,3.1,4.07,4.06,1.72.96,3.66,1.44,5.83,1.44Z"/>
        <path class="cls-4" d="m163.8,69.63c-2.42,0-4.52-.43-6.29-1.28s-3.14-2.15-4.1-3.87c-.96-1.73-1.44-3.86-1.44-6.41v-15.96h0c1.5,0,2.71,1.21,2.71,2.71v13.04c0,3.07.81,5.41,2.44,7.01,1.63,1.61,3.92,2.41,6.89,2.41,2.13,0,3.98-.44,5.53-1.31,1.55-.87,2.75-2.1,3.58-3.69.83-1.59,1.25-3.46,1.25-5.63v-11.83c0-1.5,1.21-2.71,2.71-2.71h0v24.71c0,1.44-1.17,2.6-2.6,2.6h0v-7.59l.38.89c-.83,2.13-2.22,3.81-4.15,5.05-1.94,1.24-4.24,1.86-6.92,1.86Z"/>
        <path class="cls-4" d="m188.6,66.71v-24.6s0,0,0,0c1.44,0,2.6,1.17,2.6,2.6v4.88s-.27-.84-.27-.84c.8-2.2,2.13-3.89,4.01-5.08,1.24-.78,2.68-1.3,4.33-1.57,1.43-.23,2.73.91,2.73,2.36h0c-.11,0-.22,0-.33-.03s-.22-.03-.33-.03c-3.15,0-5.61.95-7.38,2.85-1.77,1.9-2.66,4.54-2.66,7.93v14.23h0c-1.5,0-2.71-1.21-2.71-2.71Z"/>
        <path class="cls-4" d="m205.31,44.36h0c0-1.24,1.01-2.25,2.25-2.25h14.68c0,1.24-1.01,2.25-2.25,2.25h-14.68Zm7.92,25.07c-1.5,0-2.71-1.21-2.71-2.71v-28.79c0-2.27.68-4.09,2.03-5.47,1.36-1.38,3.3-2.07,5.83-2.07,1.05,0,2.08.15,3.09.44,1.01.3,1.84.74,2.5,1.33h0c-.52.95-1.66,1.38-2.66.98-.12-.05-.25-.1-.38-.14-.76-.24-1.57-.37-2.44-.37-1.74,0-3.06.46-3.96,1.39-.9.92-1.36,2.29-1.36,4.11v4.61l.05,1.26v25.43s0,0,0,0Z"/>
        <path class="cls-4" d="m239.27,69.63c-2.42,0-4.52-.43-6.29-1.28-1.77-.85-3.14-2.15-4.1-3.87-.96-1.73-1.44-3.86-1.44-6.41v-15.96h0c1.5,0,2.71,1.21,2.71,2.71v13.04c0,3.07.81,5.41,2.44,7.01,1.63,1.61,3.92,2.41,6.89,2.41,2.13,0,3.98-.44,5.53-1.31,1.55-.87,2.75-2.1,3.58-3.69.83-1.59,1.25-3.46,1.25-5.63v-11.83c0-1.5,1.21-2.71,2.71-2.71h0v24.71c0,1.44-1.17,2.6-2.6,2.6h0v-7.59l.38.89c-.83,2.13-2.22,3.81-4.15,5.05-1.94,1.24-4.24,1.86-6.92,1.86Z"/>
        <path class="cls-4" d="m264.06,66.71V30.6h0c1.5,0,2.71,1.21,2.71,2.71v36.12h0c-1.5,0-2.71-1.21-2.71-2.71Z"/>
      </g>
    </g>
  </g>
  <g>
    <rect class="cls-3" x="900.51" y="331.88" width="30.57" height="30.57"/>
    <rect class="cls-3" x="0" y="0" width="30.57" height="30.57"/>
    <rect class="cls-3" x="0" y="331.88" width="30.57" height="30.57"/>
    <rect class="cls-3" x="900.51" y="0" width="30.57" height="30.57"/>
  </g>
</svg>